<svg xmlns="http://www.w3.org/2000/svg"  viewBox="0 0 48 48" width="100px" height="100px"><path fill="#ffab91" d="M42.018,15.474c0-3.464-2.808-6.272-6.272-6.272H21.272C17.808,9.202,15,12.01,15,15.474	c0,3.464,2.808,6.272,6.272,6.272c-3.464,0-6.272,2.808-6.272,6.272s2.808,6.272,6.272,6.272h0.482c-3.73,0-6.754,3.024-6.754,6.754	s3.024,6.754,6.754,6.754s6.754-3.024,6.754-6.754V21.746h7.237C39.21,21.746,42.018,18.938,42.018,15.474z"/><path fill="none" stroke="#18193f" stroke-linecap="round" stroke-linejoin="round" stroke-miterlimit="10" stroke-width="3" d="M17.5,44.5L17.5,44.5c-3.866,0-7-3.134-7-7l0,0c0-3.866,3.134-7,7-7h7v7C24.5,41.366,21.366,44.5,17.5,44.5z"/><path fill="none" stroke="#18193f" stroke-linecap="round" stroke-linejoin="round" stroke-miterlimit="10" stroke-width="3" d="M32,4.5h-7.5"/><path fill="none" stroke="#18193f" stroke-linecap="round" stroke-linejoin="round" stroke-miterlimit="10" stroke-width="3" d="M24.5,17.5H32c3.59,0,6.5-2.91,6.5-6.5c0-1.138-0.292-2.208-0.806-3.138"/><path fill="none" stroke="#18193f" stroke-linecap="round" stroke-linejoin="round" stroke-miterlimit="10" stroke-width="3" d="M17,30.5h7.5v-13H17c-3.59,0-6.5,2.91-6.5,6.5c0,1.202,0.326,2.328,0.895,3.294"/><path fill="none" stroke="#18193f" stroke-linecap="round" stroke-linejoin="round" stroke-miterlimit="10" stroke-width="3" d="M32.5,32c-3.59,0-6.5-2.91-6.5-6.5s2.91-6.5,6.5-6.5s6.5,2.91,6.5,6.5c0,1.561-0.55,2.993-1.467,4.113"/><path fill="none" stroke="#18193f" stroke-linecap="round" stroke-linejoin="round" stroke-miterlimit="10" stroke-width="3" d="M17,4.5c-3.59,0-6.5,2.91-6.5,6.5s2.91,6.5,6.5,6.5h7.5v-13H17z"/></svg>