<svg xmlns="http://www.w3.org/2000/svg" xmlns:xlink="http://www.w3.org/1999/xlink" viewBox="0,0,255.98959,255.98959" width="100px" height="100px" fill-rule="nonzero"><g fill="none" fill-rule="nonzero" stroke="none" stroke-width="none" stroke-linecap="none" stroke-linejoin="none" stroke-miterlimit="10" stroke-dasharray="" stroke-dashoffset="0" font-family="none" font-weight="none" font-size="none" text-anchor="none" style="mix-blend-mode: normal"><path transform="scale(5.33333,5.33333)" d="M40.5,31.7v4.8c0,2.2 -1.8,4 -4,4h-25c-2.2,0 -4,-1.8 -4,-4v-11.6l5.5,1.13333v-5.03333c0,-0.28697 0.0915,-0.52819 0.25262,-0.70177l-5.75262,-1.09823v-7.7c0,-2.2 1.8,-4 4,-4h25c2.2,0 4,1.8 4,4v14l-5.71552,-1.09114c0.14043,0.5072 0.21552,1.04083 0.21552,1.59114v4.56667zM18,21.20455v5.85909l2,0.41212l0,-5.88939zM30,26.5c0,-1.4 -1.1,-2.5 -2.5,-2.5c-1.4,0 -2.5,1.1 -2.5,2.5l0,2.00606l5,1.0303z" id="strokeMainSVG" fill="#f6f1de" stroke="#f6f1de" stroke-width="5" stroke-linecap="round" stroke-linejoin="round"></path><g transform="scale(5.33333,5.33333)"><path d="M40.5,31.7v4.8c0,2.2 -1.8,4 -4,4h-25c-2.2,0 -4,-1.8 -4,-4v-11.6" fill="none" stroke="#3e3f5b" stroke-width="3" stroke-linecap="round" stroke-linejoin="round"></path><path d="M7.5,19.2v-7.7c0,-2.2 1.8,-4 4,-4h25c2.2,0 4,1.8 4,4v14" fill="none" stroke="#3e3f5b" stroke-width="3" stroke-linecap="round" stroke-linejoin="round"></path><circle cx="15.5" cy="15.5" r="2.5" fill="#3e3f5b" stroke="none" stroke-width="1" stroke-linecap="butt" stroke-linejoin="miter"></circle><path d="M17,35h-3c-0.6,0 -1,-0.4 -1,-1v-13c0,-0.6 0.4,-1 1,-1h3c0.6,0 1,0.4 1,1v13c0,0.6 -0.4,1 -1,1z" fill="#3e3f5b" stroke="none" stroke-width="1" stroke-linecap="butt" stroke-linejoin="miter"></path><path d="M29,20c-1.5,0 -2.9,0.6 -4,1.5v-0.5c0,-0.6 -0.4,-1 -1,-1h-3c-0.6,0 -1,0.4 -1,1v13c0,0.6 0.4,1 1,1h3c0.6,0 1,-0.4 1,-1v-7.5c0,-1.4 1.1,-2.5 2.5,-2.5c1.4,0 2.5,1.1 2.5,2.5v7.5c0,0.6 0.4,1 1,1h3c0.6,0 1,-0.4 1,-1v-8c0,-3.3 -2.7,-6 -6,-6z" fill="#3e3f5b" stroke="none" stroke-width="1" stroke-linecap="butt" stroke-linejoin="miter"></path></g></g></svg>