<svg xmlns="http://www.w3.org/2000/svg" xmlns:xlink="http://www.w3.org/1999/xlink" viewBox="0,0,255.98959,255.98959" width="100px" height="100px" fill-rule="nonzero"><g transform="translate(-57.59766,-57.59766) scale(1.45,1.45)"><g fill="none" fill-rule="nonzero" stroke="none" stroke-width="1" stroke-linecap="butt" stroke-linejoin="miter" stroke-miterlimit="10" stroke-dasharray="" stroke-dashoffset="0" font-family="none" font-weight="none" font-size="none" text-anchor="none" style="mix-blend-mode: normal"><g transform="scale(2.56,2.56)"><path d="M82,29.429v41.143c0,6.285 -5.143,11.428 -11.429,11.428h-41.142c-6.286,0 -11.429,-5.143 -11.429,-11.429v-41.142c0,-6.286 5.143,-11.429 11.429,-11.429h41.143c6.285,0 11.428,5.143 11.428,11.429z" fill="#fefdef"></path><path d="M70.571,83h-41.142c-6.854,0 -12.429,-5.576 -12.429,-12.429v-41.142c0,-6.853 5.575,-12.429 12.429,-12.429h41.143c6.853,0 12.428,5.576 12.428,12.429v41.143c0,6.852 -5.575,12.428 -12.429,12.428zM29.429,19c-5.75,0 -10.429,4.678 -10.429,10.429v41.143c0,5.75 4.679,10.428 10.429,10.428h41.143c5.749,0 10.428,-4.678 10.428,-10.429v-41.142c0,-5.751 -4.679,-10.429 -10.429,-10.429z" fill="#1f212b"></path><path d="M70.571,78h-41.142c-4.097,0 -7.429,-3.333 -7.429,-7.429v-41.142c0,-4.096 3.332,-7.429 7.429,-7.429h4.071c0.276,0 0.5,0.224 0.5,0.5c0,0.276 -0.224,0.5 -0.5,0.5h-4.071c-3.545,0 -6.429,2.884 -6.429,6.429v41.143c0,3.544 2.884,6.428 6.429,6.428h41.143c3.544,0 6.428,-2.884 6.428,-6.429v-4.071c0,-0.276 0.224,-0.5 0.5,-0.5c0.276,0 0.5,0.224 0.5,0.5v4.071c0,4.096 -3.332,7.429 -7.429,7.429z" fill="#1f212b"></path><path d="M77.5,64c-0.276,0 -0.5,-0.224 -0.5,-0.5v-3c0,-0.276 0.224,-0.5 0.5,-0.5c0.276,0 0.5,0.224 0.5,0.5v3c0,0.276 -0.224,0.5 -0.5,0.5z" fill="#1f212b"></path><path d="M77.5,49c-0.276,0 -0.5,-0.224 -0.5,-0.5v-19.071c0,-3.545 -2.884,-6.429 -6.429,-6.429h-19.071c-0.276,0 -0.5,-0.224 -0.5,-0.5c0,-0.276 0.224,-0.5 0.5,-0.5h19.071c4.097,0 7.429,3.333 7.429,7.429v19.071c0,0.276 -0.224,0.5 -0.5,0.5z" fill="#1f212b"></path><path d="M48.5,23h-3c-0.276,0 -0.5,-0.224 -0.5,-0.5c0,-0.276 0.224,-0.5 0.5,-0.5h3c0.276,0 0.5,0.224 0.5,0.5c0,0.276 -0.224,0.5 -0.5,0.5z" fill="#1f212b"></path><path d="M42.5,23h-6c-0.276,0 -0.5,-0.224 -0.5,-0.5c0,-0.276 0.224,-0.5 0.5,-0.5h6c0.276,0 0.5,0.224 0.5,0.5c0,0.276 -0.224,0.5 -0.5,0.5z" fill="#1f212b"></path><path d="M47.873,51.57c-0.156,0 -0.315,-0.037 -0.464,-0.115c-0.18,-0.095 -4.409,-2.376 -4.409,-7.155c0,-3.201 2.486,-5.094 4.891,-6.924c2.981,-2.27 5.557,-4.23 4.16,-8.462c-0.174,-0.524 0.111,-1.09 0.636,-1.263c0.526,-0.172 1.09,0.112 1.263,0.636c1.844,5.586 -1.866,8.411 -4.847,10.68c-2.202,1.676 -4.103,3.123 -4.103,5.333c0,3.554 3.207,5.313 3.344,5.387c0.485,0.26 0.671,0.865 0.413,1.352c-0.18,0.337 -0.527,0.531 -0.884,0.531z" fill="#f9b621"></path><path d="M51.251,52.489c-0.321,0 -0.636,-0.154 -0.829,-0.44c-0.307,-0.453 -0.191,-1.067 0.255,-1.379c0.054,-0.04 0.779,-0.609 0.779,-1.887c0,-0.435 -0.252,-0.714 -0.776,-1.256c-0.709,-0.732 -1.68,-1.735 -1.68,-3.636c0,-3.853 4.607,-6.938 7.722,-7.809c0.527,-0.146 1.085,0.161 1.232,0.693c0.149,0.532 -0.161,1.083 -0.693,1.232c-2.559,0.717 -6.261,3.224 -6.261,5.884c0,1.092 0.492,1.601 1.116,2.245c0.597,0.617 1.34,1.384 1.34,2.647c0,1.912 -1.034,3.122 -1.646,3.535c-0.171,0.116 -0.367,0.171 -0.559,0.171z" fill="#f9b621"></path><path d="M57.611,60.555c-0.414,0 -0.801,-0.26 -0.944,-0.673c-0.181,-0.521 0.096,-1.091 0.616,-1.272c1.318,-0.459 4.738,-2.183 4.738,-4.609c0,-1.035 -0.39,-1.34 -0.518,-1.441c-0.642,-0.502 -1.841,-0.354 -2.251,-0.253c-0.537,0.129 -1.077,-0.194 -1.21,-0.728c-0.134,-0.534 0.188,-1.076 0.722,-1.211c0.244,-0.062 2.438,-0.574 3.964,0.611c0.59,0.458 1.293,1.355 1.293,3.022c0,4.347 -5.835,6.414 -6.084,6.5c-0.107,0.036 -0.217,0.053 -0.326,0.054z" fill="#5c769b"></path><path d="M44.512,55.974c-3.198,0 -5.916,-0.318 -6.872,-0.994c-0.557,-0.394 -0.64,-0.885 -0.64,-1.143c0,-2.139 3.777,-3.043 5.4,-3.332c0.554,-0.099 1.063,0.266 1.16,0.809c0.097,0.543 -0.265,1.063 -0.809,1.16c-1.319,0.236 -2.703,0.702 -3.373,1.102c2.655,0.683 12.045,0.587 16.778,-1.089c0.523,-0.184 1.094,0.089 1.276,0.609c0.185,0.521 -0.088,1.092 -0.608,1.277c-2.925,1.034 -8.046,1.601 -12.312,1.601z" fill="#5c769b"></path><path d="M45.659,59.967c-3.214,0 -5.905,-0.545 -6.476,-2.028c-0.701,-1.824 1.84,-3.251 2.674,-3.72c0.481,-0.271 1.091,-0.099 1.362,0.382c0.271,0.481 0.1,1.091 -0.382,1.362c-1.215,0.682 -1.604,1.125 -1.724,1.304c0.935,0.764 6.455,1.165 12.703,-0.248c0.537,-0.12 1.074,0.216 1.196,0.755c0.121,0.539 -0.217,1.074 -0.755,1.196c-2.546,0.576 -5.774,0.997 -8.598,0.997z" fill="#5c769b"></path><path d="M46.204,63.969c-2.369,0 -4.48,-0.422 -5.06,-1.802c-0.51,-1.213 0.269,-2.519 2.312,-3.88c0.461,-0.307 1.08,-0.182 1.387,0.278c0.307,0.459 0.182,1.081 -0.277,1.387c-1.474,0.98 -1.565,1.496 -1.565,1.5c0.283,0.367 3.263,1.126 10.177,-0.331c0.539,-0.113 1.07,0.232 1.185,0.772c0.114,0.54 -0.231,1.071 -0.772,1.185c-1.411,0.297 -4.58,0.891 -7.387,0.891z" fill="#5c769b"></path><path d="M45.875,69.3c-12.775,0 -12.775,-2.348 -12.775,-3.233c0,-2.028 3.338,-2.675 4.773,-2.859c0.553,-0.076 1.049,0.317 1.118,0.864c0.071,0.548 -0.316,1.049 -0.863,1.12c-1.167,0.151 -2.437,0.535 -2.902,0.854c0.711,0.447 3.477,1.253 10.649,1.253c7.766,0 13.537,-1.235 14.401,-2.141c-0.005,-0.006 -0.011,-0.012 -0.017,-0.019c-0.371,-0.409 -0.341,-1.041 0.067,-1.413c0.408,-0.371 1.042,-0.341 1.413,0.067c0.58,0.639 0.738,1.398 0.435,2.085c-1.494,3.383 -15.695,3.422 -16.299,3.422z" fill="#5c769b"></path><path d="M49.49,72.567c-4.561,0 -8.308,-0.541 -8.635,-0.589c-0.547,-0.081 -0.924,-0.59 -0.843,-1.136c0.082,-0.545 0.591,-0.919 1.136,-0.842c0.164,0.024 16.502,2.377 22.112,-2.739c0.407,-0.371 1.04,-0.343 1.413,0.065c0.372,0.408 0.343,1.041 -0.065,1.413c-3.394,3.095 -9.807,3.828 -15.118,3.828z" fill="#5c769b"></path></g></g></g></svg>